<svg id="Layer_1" enable-background="new 0 0 512 512" height="512" viewBox="0 0 512 512" width="512" xmlns="http://www.w3.org/2000/svg"><g><g><g><path d="m364.257 430.054h-330.005c-16.815 0-30.446-13.631-30.446-30.446v-198.282c0-20.084 16.281-36.365 36.365-36.365h324.083c20.084 0 36.365 16.281 36.365 36.365v192.367c-.001 20.082-16.28 36.361-36.362 36.361z" fill="#d9ddff"/><path d="m254.522 504.388h-104.62l17.583-74.334h69.454z" fill="#6967bf"/><path d="m236.939 430.055h-40.595l17.583 74.333h40.595z" fill="#5b59b2"/><g><path d="m3.806 366.085v33.523c0 16.815 13.631 30.446 30.446 30.446h335.921c16.815 0 30.446-13.631 30.446-30.446v-33.523z" fill="#7776d0"/></g><path d="m287.461 496.777h-170.498c-4.204 0-7.611 3.408-7.611 7.611 0 4.204 3.407 7.612 7.611 7.612h170.498c4.204 0 7.612-3.408 7.612-7.612-.001-4.203-3.408-7.611-7.612-7.611z" fill="#7776d0"/></g><g fill="#fff"><path d="m223.724 253.573-8.981-46.997c-.788-3.868-4.089-6.726-8.031-6.95-3.948-.241-7.546 2.241-8.767 5.995-.029.089-.057.178-.082.268l-7.12 24.978-7.391-25.053c-.027-.092-.056-.184-.086-.275-1.26-3.741-4.886-6.171-8.828-5.905-3.939.264-7.211 3.155-7.977 7.122l-8.463 46.893c-.746 4.137 2.002 8.096 6.139 8.842 4.134.743 8.096-2.001 8.842-6.139l3.572-19.793 5.968 20.229c.027.091.055.181.085.271 1.193 3.552 4.502 5.929 8.246 5.929h.048c3.761-.02 7.068-2.438 8.228-6.017.028-.086.055-.172.079-.26l5.76-20.206 3.808 19.924c.789 4.129 4.775 6.838 8.905 6.048 4.129-.788 6.836-4.775 6.046-8.904z"/><path d="m90.441 242.746c-3.221-2.7-8.022-2.277-10.722.945-.369.441-.766.851-1.18 1.221-2.127 1.893-4.869 2.853-8.153 2.853-9.079 0-16.466-7.387-16.466-16.465 0-9.079 7.387-16.465 16.466-16.465 3.3 0 6.482.971 9.199 2.807 3.487 2.355 8.215 1.437 10.569-2.046 2.353-3.483 1.437-8.215-2.046-10.568-5.245-3.544-11.374-5.417-17.722-5.417-17.474 0-31.689 14.215-31.689 31.688s14.215 31.688 31.689 31.688c7.029 0 13.348-2.32 18.277-6.708.965-.86 1.882-1.806 2.725-2.812 2.699-3.22 2.276-8.021-.947-10.721z"/><path d="m146.15 219.738c0-11.098-9.346-20.126-20.834-20.126h-12.796c-.003 0-.005 0-.008 0s-.005 0-.008 0c-4.204 0-7.611 3.408-7.611 7.611v48.154c0 4.204 3.407 7.612 7.611 7.612s7.611-3.408 7.611-7.612v-9.412l12.71 14.44c1.504 1.71 3.606 2.583 5.717 2.583 1.786 0 3.58-.625 5.026-1.898 3.156-2.777 3.462-7.587.685-10.742l-10.679-12.133c7.391-3.095 12.576-10.212 12.576-18.477zm-20.835-4.903c2.989 0 5.612 2.291 5.612 4.903s-2.622 4.903-5.612 4.903c-1.24 0-3.16.006-5.137.015-.009-1.902-.016-3.735-.016-4.919 0-1.02-.004-2.902-.009-4.903h5.162z"/></g></g><g><path d="m467.485 92.977v165.995c0 14.962-12.129 27.091-27.091 27.091h-65.245l-44.433 33.075v-33.075h-32.104c-14.962 0-27.091-12.129-27.091-27.091v-165.995c0-14.962 12.129-27.091 27.091-27.091h141.781c14.962-.001 27.092 12.129 27.092 27.091z" fill="#fff5b5"/><g><path d="m440.393 65.885h-40.595c14.962 0 27.091 12.129 27.091 27.091v165.995c0 14.962-12.129 27.091-27.091 27.091h40.595c14.962 0 27.091-12.129 27.091-27.091v-165.994c.001-14.962-12.128-27.092-27.091-27.092z" fill="#ffef8f"/></g><g fill="#ffd54d"><path d="m332.872 194.7v-34.44c0-4.204-3.407-7.611-7.612-7.611s-7.611 3.408-7.611 7.611v34.44c0 4.204 3.407 7.611 7.611 7.611s7.612-3.407 7.612-7.611z"/><path d="m421.356 194.7v-34.44c0-4.204-3.407-7.611-7.612-7.611s-7.611 3.408-7.611 7.611v34.44c0 4.204 3.407 7.611 7.611 7.611s7.612-3.407 7.612-7.611z"/><path d="m369.502 151.946c-9.688 0-17.57 7.882-17.57 17.57v15.927c0 9.689 7.882 17.571 17.57 17.571 9.689 0 17.571-7.882 17.571-17.571v-15.927c0-9.687-7.882-17.57-17.571-17.57zm2.348 33.498c0 1.295-1.054 2.348-2.348 2.348s-2.347-1.053-2.347-2.348v-15.927c0-1.294 1.053-2.347 2.347-2.347s2.348 1.053 2.348 2.347z"/><path d="m369.502 143.812c4.204 0 7.612-3.408 7.612-7.611v-34.44c0-4.204-3.407-7.611-7.612-7.611s-7.611 3.408-7.611 7.611v34.44c0 4.203 3.407 7.611 7.611 7.611z"/><path d="m325.261 93.446c-9.688 0-17.57 7.882-17.57 17.571v15.927c0 9.688 7.882 17.57 17.57 17.57 9.689 0 17.571-7.882 17.571-17.57v-15.927c0-9.689-7.883-17.571-17.571-17.571zm2.348 33.498c0 1.294-1.054 2.347-2.348 2.347s-2.347-1.053-2.347-2.347v-15.927c0-1.295 1.053-2.348 2.347-2.348s2.348 1.053 2.348 2.348z"/><path d="m413.744 93.446c-9.688 0-17.57 7.882-17.57 17.571v15.927c0 9.688 7.882 17.57 17.57 17.57 9.689 0 17.571-7.882 17.571-17.57v-15.927c0-9.689-7.882-17.571-17.571-17.571zm2.348 33.498c0 1.294-1.053 2.347-2.348 2.347-1.294 0-2.347-1.053-2.347-2.347v-15.927c0-1.295 1.053-2.348 2.347-2.348s2.348 1.053 2.348 2.348z"/><path d="m369.502 211.15c-4.204 0-7.611 3.408-7.611 7.611v34.44c0 4.204 3.407 7.611 7.611 7.611s7.612-3.408 7.612-7.611v-34.44c0-4.204-3.407-7.611-7.612-7.611z"/><path d="m325.261 210.446c-9.688 0-17.57 7.882-17.57 17.571v15.927c0 9.688 7.882 17.57 17.57 17.57 9.689 0 17.571-7.882 17.571-17.57v-15.927c0-9.688-7.883-17.571-17.571-17.571zm2.348 33.499c0 1.294-1.054 2.347-2.348 2.347s-2.347-1.053-2.347-2.347v-15.927c0-1.295 1.053-2.348 2.347-2.348s2.348 1.053 2.348 2.348z"/><path d="m413.744 210.446c-9.688 0-17.57 7.882-17.57 17.571v15.927c0 9.688 7.882 17.57 17.57 17.57 9.689 0 17.571-7.882 17.571-17.57v-15.927c0-9.688-7.882-17.571-17.571-17.571zm2.348 33.499c0 1.294-1.053 2.347-2.348 2.347-1.294 0-2.347-1.053-2.347-2.347v-15.927c0-1.295 1.053-2.348 2.347-2.348s2.348 1.053 2.348 2.348z"/></g></g><g><path d="m470.579 413.584c2.749 5.388 4.31 11.484 4.31 17.947 0 21.844-17.708 39.551-39.551 39.551-15.38 0-28.699-8.784-35.241-21.604l-29.694 15.122c12.051 23.616 36.604 39.787 64.936 39.787 40.238 0 72.857-32.619 72.857-72.857 0-11.906-2.857-23.145-7.921-33.07z" fill="#a6f5cf"/><path d="m395.786 431.531c0-21.844 17.708-39.551 39.551-39.551v-33.306c-40.238 0-72.857 32.619-72.857 72.857 0 11.906 2.857 23.145 7.922 33.07l29.694-15.122c-2.75-5.388-4.31-11.484-4.31-17.948z" fill="#ffd54d"/><path d="m470.579 413.584 29.694-15.122c-12.051-23.616-36.604-39.787-64.936-39.787v33.306c15.38-.001 28.699 8.783 35.242 21.603z" fill="#ff8ccc"/></g><g><path d="m38.154 79.196h45.058v47.083h-45.058z" fill="#ffd54d"/><path d="m175.928 50.396h45.058v75.883h-45.058z" fill="#a6f5cf"/><path d="m107.041 0h45.058v126.279h-45.058z" fill="#ff8ccc"/></g><g fill="#fff"><path d="m224.665 281.777h-178.118c-4.204 0-7.611 3.408-7.611 7.612s3.407 7.611 7.611 7.611h178.118c4.204 0 7.611-3.408 7.611-7.611.001-4.204-3.407-7.612-7.611-7.612z"/><path d="m143.215 314.769h-96.668c-4.204 0-7.611 3.408-7.611 7.612s3.407 7.611 7.611 7.611h96.668c4.204 0 7.611-3.408 7.611-7.611.001-4.204-3.407-7.612-7.611-7.612z"/></g></g></svg>